<?xml version="1.0" encoding="UTF-8"?>
<svg version="1.1" xmlns="http://www.w3.org/2000/svg" width="512" height="512">
<path d="M0 0 C1.18259978 -0.00453111 2.36519955 -0.00906223 3.58363569 -0.01373065 C6.85326447 -0.02417803 10.12275443 -0.02570443 13.39239454 -0.02334189 C16.92343174 -0.02293285 20.45443643 -0.03398088 23.98545837 -0.04345703 C30.89707634 -0.06004624 37.80866018 -0.06556555 44.7202964 -0.06668179 C50.33698735 -0.06763282 55.95366706 -0.07174584 61.57035446 -0.07808304 C77.49622052 -0.09568625 93.42205965 -0.10492282 109.34793551 -0.10342209 C110.63489094 -0.10330222 110.63489094 -0.10330222 111.94784546 -0.10317993 C113.23637187 -0.10305729 113.23637187 -0.10305729 114.55092911 -0.10293217 C128.48575041 -0.10211852 142.42046382 -0.12127848 156.35525389 -0.14945666 C170.66485438 -0.1781646 184.9744022 -0.19199826 199.28403223 -0.19026911 C207.31739829 -0.18960471 215.3506511 -0.1951197 223.38399124 -0.21662521 C230.22019834 -0.23480906 237.05624078 -0.23920713 243.89246155 -0.22560637 C247.38075394 -0.21906374 250.86873016 -0.21900582 254.35699272 -0.23631287 C258.13647414 -0.25166299 261.91511774 -0.24252403 265.69458008 -0.22705078 C267.3522976 -0.24248147 267.3522976 -0.24248147 269.04350436 -0.25822389 C276.43487778 -0.19106972 276.43487778 -0.19106972 280.37816429 2.11083031 C282.2203064 4.26742554 282.2203064 4.26742554 283.2203064 7.26742554 C290.1503064 7.76242554 290.1503064 7.76242554 297.2203064 8.26742554 C297.5503064 6.61742554 297.8803064 4.96742554 298.2203064 3.26742554 C300.31111744 1.12640915 301.63423951 0.36068835 304.59267712 -0.11009789 C305.47697053 -0.11122896 306.36126394 -0.11236004 307.27235413 -0.11352539 C308.80088264 -0.1262146 308.80088264 -0.1262146 310.36029053 -0.13916016 C312.02869492 -0.13005112 312.02869492 -0.13005112 313.73080444 -0.12075806 C314.90686752 -0.12601501 316.0829306 -0.13127197 317.29463196 -0.13668823 C320.51816209 -0.14763084 323.74132274 -0.14506225 326.96484733 -0.13555098 C330.34524027 -0.12794448 333.72560887 -0.13500355 337.10600281 -0.13970947 C342.78794774 -0.1451679 348.46977572 -0.13797712 354.15170288 -0.12368774 C360.70344456 -0.10740023 367.25490558 -0.11262077 373.80664033 -0.12916696 C379.44250807 -0.14282644 385.07829178 -0.14467862 390.71417075 -0.13685095 C394.07519196 -0.13219377 397.43608179 -0.13149446 400.79709435 -0.14146042 C404.55253191 -0.14910882 408.30743755 -0.13742041 412.06283569 -0.12075806 C413.16498413 -0.12683075 414.26713257 -0.13290344 415.40267944 -0.13916016 C423.41975028 -0.07351404 431.26708275 0.86921992 437.5328064 6.32992554 C438.14768921 6.8365271 438.76257202 7.34312866 439.39608765 7.86508179 C444.98123198 15.22025045 445.79530492 23.1311134 445.67199707 32.09262085 C445.67244266 33.24411023 445.67288826 34.39559961 445.67334735 35.58198261 C445.67024397 39.42013848 445.63875665 43.25752864 445.60751343 47.09555054 C445.59757987 49.8559577 445.59388455 52.61636363 445.59016418 55.37678528 C445.57940754 61.31294352 445.55517781 67.24892026 445.52276993 73.18499756 C445.4724469 82.5833314 445.46152012 91.98152312 445.45635986 101.37997437 C445.45408133 104.60215781 445.45149959 107.82434094 445.4487896 111.04652405 C445.44811608 111.8516853 445.44744257 112.65684655 445.44674865 113.48640662 C445.43843789 122.63885109 445.42084165 131.79127134 445.3999939 140.94369507 C445.39715215 142.19764613 445.39715215 142.19764613 445.394253 143.47692955 C445.36274032 157.00836278 445.30755545 170.53963072 445.24712588 184.07096076 C445.18590629 197.99542181 445.16345682 211.91961818 445.17306983 225.84420967 C445.17751683 234.4148161 445.15043773 242.98413668 445.08165114 251.55447382 C445.03705497 257.43835115 445.02931962 263.32157532 445.0495152 269.20558363 C445.05998692 272.59134298 445.04924499 275.97334083 445.00470924 279.35906792 C444.80889029 295.06467654 445.87803899 306.52281292 455.06451011 319.56847572 C456.66206582 321.91678486 457.90569453 324.4097178 459.1578064 326.95492554 C462.00509513 331.69229483 465.87036144 333.8913332 470.5874939 336.60336304 C474.80731578 339.27049081 477.97144565 342.76970405 480.2203064 347.26742554 C480.35542421 349.75061146 480.43290024 352.2044686 480.45858765 354.68930054 C480.46665939 355.42690613 480.47473114 356.16451172 480.48304749 356.92446899 C480.4968869 358.4879827 480.50760971 360.0515266 480.51547241 361.61508179 C480.53264156 363.99457999 480.57652027 366.37267246 480.62069702 368.75180054 C480.63082823 370.27262368 480.63934299 371.79345861 480.64608765 373.31430054 C480.66359573 374.02076721 480.68110382 374.72723389 480.69914246 375.45510864 C480.67340622 381.38250446 478.55109666 384.82254064 474.54452515 389.02523804 C474.00440796 389.47640991 473.46429077 389.92758179 472.9078064 390.39242554 C472.37542358 390.84875366 471.84304077 391.30508179 471.29452515 391.77523804 C469.2203064 393.26742554 469.2203064 393.26742554 465.9624939 394.65805054 C460.21427245 397.88718277 457.68868991 404.29539915 454.6578064 409.89242554 C453.38634641 412.17665579 452.11421995 414.46051522 450.84140015 416.74398804 C449.93309448 418.40567017 449.93309448 418.40567017 449.00643921 420.10092163 C447.36592948 423.00926105 445.6066112 425.79256384 443.79452515 428.59555054 C441.05220915 433.1170008 440.54289821 436.12016234 440.5953064 441.39242554 C440.45820821 447.54102818 440.14104444 452.34648512 436.2203064 457.26742554 C431.08201518 461.729094 425.25005589 465.24001974 419.3453064 468.57992554 C418.60667358 469.02142944 417.86804077 469.46293335 417.10702515 469.91781616 C410.75197025 473.51387409 404.48738304 475.22682055 397.23202515 473.59555054 C396.46503296 473.23976929 395.69804077 472.88398804 394.9078064 472.51742554 C394.12792358 472.17195679 393.34804077 471.82648804 392.54452515 471.47055054 C390.2203064 470.26742554 390.2203064 470.26742554 388.18075562 468.72372437 C383.96602931 466.65042382 380.16979392 466.78075351 375.52890015 466.76351929 C374.11726341 466.74854149 374.11726341 466.74854149 372.67710876 466.73326111 C370.68593731 466.71809512 368.69468985 466.71103485 366.70346069 466.71151733 C363.69147861 466.70499841 360.68287124 466.65062108 357.67147827 466.59359741 C346.53991972 466.4980173 338.72492484 467.06070589 329.2203064 473.26742554 C322.66614701 475.45214533 317.3465756 473.97125516 311.2203064 471.26742554 C308.25648199 469.73003172 305.39345067 468.05040239 302.5328064 466.32992554 C301.79997437 465.90002319 301.06714233 465.47012085 300.31210327 465.02719116 C292.84418838 460.5895393 287.53592077 456.9692606 285.2203064 448.26742554 C285.13795217 445.95601684 285.10025901 443.64279558 285.0953064 441.32992554 C284.7270721 431.21371119 279.505597 423.63469847 274.2203064 415.26742554 C271.2203064 410.4906015 271.2203064 410.4906015 271.2203064 408.26742554 C270.61817684 408.26894442 270.01604728 408.2704633 269.39567137 408.27202821 C233.70537069 408.3615484 198.01508933 408.43017575 162.32469973 408.47168685 C158.0389252 408.47668966 153.7531509 408.48186695 149.46737671 408.4871521 C148.61415937 408.48820134 147.76094203 408.48925058 146.88186961 408.49033162 C133.06827173 408.50773493 119.25474045 408.53927221 105.44118208 408.57603672 C91.26627205 408.61344821 77.0913969 408.63566183 62.91643953 408.64377952 C54.17032495 408.64926686 45.42439866 408.66659561 36.67834204 408.6990914 C30.68012617 408.72024186 24.68200758 408.72662439 18.68375713 408.72143105 C15.2234816 408.71887007 11.76353501 408.72278452 8.30331802 408.74424744 C4.54861876 408.76413672 0.79472632 408.75936737 -2.95999146 408.7484436 C-4.04949994 408.76009497 -5.13900842 408.77174634 -6.26153231 408.78375077 C-13.85452272 408.72400638 -19.15642635 407.44251862 -25.0218811 402.30258179 C-25.56070923 401.65160522 -26.09953735 401.00062866 -26.6546936 400.32992554 C-27.20899048 399.6815271 -27.76328735 399.03312866 -28.3343811 398.36508179 C-32.09513854 392.9069014 -32.0869368 387.89740047 -32.08047485 381.47836304 C-32.08475998 380.53812286 -32.0890451 379.59788269 -32.09346008 378.62915039 C-32.09918977 376.64725549 -32.0997137 374.66533957 -32.09536743 372.68344116 C-32.0921973 369.6459703 -32.11571866 366.60946429 -32.14102173 363.57211304 C-32.14329378 361.64503093 -32.14399865 359.71794621 -32.14297485 357.79086304 C-32.1521846 356.88145966 -32.16139435 355.97205627 -32.17088318 355.03509521 C-32.16465439 354.19056793 -32.1584256 353.34604065 -32.15200806 352.47592163 C-32.15263748 351.73377411 -32.15326691 350.99162659 -32.15391541 350.22698975 C-31.66498619 347.66677494 -30.88670808 346.77681673 -28.7796936 345.26742554 C-27.4596936 345.26742554 -26.1396936 345.26742554 -24.7796936 345.26742554 C-24.7796936 340.31742554 -24.7796936 335.36742554 -24.7796936 330.26742554 C-26.4296936 329.93742554 -28.0796936 329.60742554 -29.7796936 329.26742554 C-32.34103266 326.70608648 -32.03306934 325.76528212 -32.04254913 322.20787811 C-32.05023142 321.13021038 -32.05791371 320.05254264 -32.0658288 318.9422183 C-32.06409584 317.74867121 -32.06236287 316.55512412 -32.06057739 315.32540894 C-32.06651964 314.06485451 -32.07246188 312.80430009 -32.07858419 311.50554705 C-32.09476117 307.99486774 -32.09830538 304.48427012 -32.09977913 300.97355795 C-32.10347406 297.19147632 -32.11856599 293.4094374 -32.13204956 289.62738037 C-32.15924735 281.35023778 -32.17127155 273.07311452 -32.18007088 264.79593468 C-32.18559265 259.62749698 -32.194067 254.45906679 -32.20307922 249.29063416 C-32.22747274 234.98187479 -32.24806707 220.67312145 -32.25482941 206.36434174 C-32.25526854 205.44796811 -32.25570767 204.53159449 -32.25616011 203.58745196 C-32.25681494 202.20957734 -32.25681494 202.20957734 -32.25748301 200.80386686 C-32.25836994 198.9424359 -32.25926307 197.08100493 -32.26016235 195.21957397 C-32.26060521 194.2962375 -32.26104807 193.37290103 -32.26150435 192.42158467 C-32.2693947 177.47130154 -32.30428177 162.52121373 -32.3508814 147.571006 C-32.39833443 132.22305818 -32.42323442 116.87520827 -32.42556524 101.52718592 C-32.42739776 92.90945975 -32.43887634 84.29198775 -32.47520447 75.67433167 C-32.50604237 68.3330536 -32.51622695 60.99210817 -32.49972826 53.65077764 C-32.49192632 49.90658152 -32.49371691 46.16305479 -32.52184296 42.4189415 C-32.55209936 38.3539173 -32.53555523 34.29039424 -32.51467896 30.22531128 C-32.53079176 29.04960996 -32.54690457 27.87390864 -32.56350565 26.66258001 C-32.46932315 18.8124498 -30.72240715 13.43660306 -25.7796936 7.26742554 C-18.23864222 0.19141738 -9.89405119 -0.02784079 0 0 Z " fill="#010102" transform="translate(31.779693603515625,18.732574462890625)"/>
<path d="M0 0 C107.58 0 215.16 0 326 0 C326 63.03 326 126.06 326 191 C321.68879861 189.27551944 317.8525247 187.27795927 313.875 184.9375 C306.75636445 180.75659658 301.32582775 178.77577941 293 180 C291.11036348 181.08905943 289.26466535 182.25622011 287.45703125 183.4765625 C279.04088786 188.17822511 270.88552967 188.0607891 261.41674805 187.91259766 C258.5687931 187.8750829 255.72857875 187.91236307 252.88085938 187.95703125 C242.48938622 187.98147459 234.77664082 187.00737776 225.81713867 181.57373047 C221.47727906 179.14936657 217.79274722 178.89398141 213 180 C209.38929342 181.25320056 206.27333036 183.03950267 203 185 C202.0419043 185.54720703 202.0419043 185.54720703 201.06445312 186.10546875 C198.90450519 187.3402956 196.76334658 188.60317295 194.625 189.875 C193.58931885 190.47223877 193.58931885 190.47223877 192.53271484 191.08154297 C187.66300499 194.06920478 185.21142211 196.68001555 183 202 C182.86206155 205.54695361 182.86206155 205.54695361 183.1875 209.3125 C183.28164176 221.64507121 175.23537511 231.98476425 168.8762207 242.02001953 C166.59306883 245.64632424 164.42093944 249.33219868 162.26367188 253.03442383 C160.06510338 256.45418328 157.2211549 258.24007267 153.828125 260.3515625 C147.85457244 264.15823815 144.29932075 267.10203776 142 274 C141.71096544 278.37020258 141.72214141 282.7463258 141.6875 287.125 C141.65849609 288.32382812 141.62949219 289.52265625 141.59960938 290.7578125 C141.54836082 297.94837884 141.9631433 303.88157194 146 310 C148.00720431 312.1799928 148.00720431 312.1799928 150.25 313.5 C151.5056114 314.3248542 152.75747321 315.15556432 154 316 C154 316.33 154 316.66 154 317 C103.18 317 52.36 317 0 317 C0 212.39 0 107.78 0 0 Z " fill="#F3FAFE" transform="translate(136,95)"/>
<path d="M0 0 C34.98 0 69.96 0 106 0 C106 104.61 106 209.22 106 317 C6 317 6 317 1 313 C-0.2607081 309.2178757 -0.15486104 305.65953996 -0.17578125 301.71875 C-0.19896951 300.05597678 -0.22308644 298.39321631 -0.24804688 296.73046875 C-0.28323116 294.11010072 -0.31255 291.490205 -0.32592773 288.86962891 C-0.34136928 286.33959089 -0.38153865 283.81092654 -0.42578125 281.28125 C-0.42387283 280.49681519 -0.42196442 279.71238037 -0.41999817 278.9041748 C-0.4875016 274.54540606 -0.4875016 274.54540606 -2.84838867 271.04492188 C-5.09589896 269.89582289 -5.09589896 269.89582289 -8 269 C-8 264.05 -8 259.1 -8 254 C-6.02 253.01 -4.04 252.02 -2 251 C-0.85255778 248.70511556 -0.87031119 247.41703852 -0.8613348 244.86517906 C-0.85586036 243.99383147 -0.85038591 243.12248387 -0.84474558 242.2247318 C-0.84376747 241.26171136 -0.84278936 240.29869092 -0.84178162 239.30648804 C-0.83437465 237.77871796 -0.83437465 237.77871796 -0.82681805 236.22008383 C-0.81138121 232.78523339 -0.80306573 229.35040172 -0.79467773 225.91552734 C-0.78510407 223.46205987 -0.7750943 221.00859405 -0.76467896 218.55513 C-0.74319375 213.26167728 -0.72476025 207.96822722 -0.70907402 202.6747551 C-0.68638897 195.0212266 -0.65824427 187.3677259 -0.62875474 179.71422096 C-0.58106207 167.29777415 -0.53780244 154.88131599 -0.49731445 142.46484375 C-0.45796804 130.4013582 -0.41654388 118.33788274 -0.37231445 106.27441406 C-0.36959018 105.53117761 -0.36686591 104.78794116 -0.36405908 104.02218239 C-0.35037975 100.29368979 -0.33665944 96.56519734 -0.32291877 92.83670497 C-0.20892768 61.89115651 -0.10293792 30.94558776 0 0 Z " fill="#C9E0FD" transform="translate(15,95)"/>
<path d="M0 0 C1.80168951 1.09509939 3.5632126 2.25713857 5.296875 3.45703125 C14.40565503 8.54383587 23.79088999 7.9460964 33.99414062 7.74780273 C37.25763826 7.68735853 40.51726936 7.68625738 43.78125 7.69335938 C45.88023674 7.67795773 47.97920208 7.65919406 50.078125 7.63671875 C51.04083313 7.63540451 52.00354126 7.63409027 52.99542236 7.63273621 C60.86795553 7.44164231 66.4257865 5.03239591 73.1875 1.1875 C76.80571248 -0.34018971 78.19596832 0.00056112 82 1 C85.04777667 2.49086624 87.92242394 4.22604027 90.8125 6 C91.58787109 6.4640625 92.36324219 6.928125 93.16210938 7.40625 C98.79958791 10.79958791 98.79958791 10.79958791 100 12 C100.20451105 15.24945336 100.34577659 18.49154921 100.4296875 21.74609375 C100.84366397 31.04331532 105.66775274 38.21172699 110.1875 46.125 C110.76975342 47.14456787 111.35200684 48.16413574 111.9519043 49.21459961 C113.10831367 51.23322011 114.26717898 53.25043601 115.42871094 55.26611328 C116.74983818 57.56474331 118.05335867 59.87200203 119.3515625 62.18359375 C123.4079286 69.17314888 127.37465602 74.29964834 134.7668457 77.84814453 C137.98161776 79.63955421 139.69123198 80.91582098 140.72338867 84.54003906 C141.055498 87.68480487 141.12273116 90.7133383 141.0625 93.875 C141.05234863 94.96530518 141.04219727 96.05561035 141.03173828 97.17895508 C140.81919915 101.88022048 140.66631425 105.03556426 137.95703125 108.95703125 C135.36721413 110.69271806 132.86389979 111.78586783 130 113 C125.5052997 116.34612955 122.87812731 119.29715374 120.125 124.26171875 C119.79258301 124.85241653 119.46016602 125.44311432 119.11767578 126.05171204 C118.06697296 127.92417095 117.03306251 129.80526204 116 131.6875 C114.966482 133.5439058 113.92955579 135.39837771 112.89233398 137.25271606 C112.21782465 138.46040261 111.54543546 139.6692759 110.87524414 140.87936401 C108.41676185 145.30801354 105.82438872 149.63715684 103.12890625 153.92504883 C100.96444366 157.90337226 100.98092828 161.24486499 101.01611328 165.73681641 C100.94800783 174.77420383 100.94800783 174.77420383 98.3203125 178.171875 C95.95469623 179.73772776 93.5963558 180.85911957 91 182 C89.10279319 183.14355776 87.2069704 184.28941466 85.3125 185.4375 C82.19244556 187.28179885 80.63618242 188.03883191 76.9921875 187.81640625 C74.00233879 187.00063813 71.5426853 185.95609883 68.8125 184.5 C64.57326931 182.25991497 61.26887672 180.88585532 56.44360352 180.79125977 C55.06054771 180.76232384 55.06054771 180.76232384 53.64955139 180.73280334 C49.40809298 180.67467535 45.16680082 180.62571479 40.92504883 180.5949707 C38.69930422 180.57347763 36.47364211 180.53947958 34.24829102 180.49243164 C16.6378613 179.80829334 16.6378613 179.80829334 1 187 C0.67 187.33 0.34 187.66 0 188 C-5.95260561 187.68988967 -9.84086354 185.72357035 -14.8125 182.5625 C-15.47958984 182.15451172 -16.14667969 181.74652344 -16.83398438 181.32617188 C-19.44991015 179.70804625 -21.81815644 178.18184356 -24 176 C-24.10056142 173.79356405 -24.12964994 171.58372149 -24.125 169.375 C-24.51925895 159.96347571 -28.37713698 152.99178212 -33 145 C-33.8981543 143.42629639 -33.8981543 143.42629639 -34.81445312 141.82080078 C-38.67767148 135.05255641 -42.57931787 128.30868184 -46.52294922 121.58691406 C-48 119 -48 119 -49.0871582 116.72143555 C-50.32019523 114.39617637 -51.60400553 114.02563884 -54 113 C-55.73766579 111.993702 -57.4665405 110.97210933 -59.1875 109.9375 C-60.06792969 109.41027344 -60.94835937 108.88304687 -61.85546875 108.33984375 C-64 107 -64 107 -65 106 C-65.44817387 102.11625327 -65.51153165 98.21808057 -65.625 94.3125 C-65.69589844 93.22259766 -65.76679688 92.13269531 -65.83984375 91.00976562 C-66.02337475 83.07446488 -66.02337475 83.07446488 -63.09277344 79.99755859 C-60.7896644 78.47017898 -58.46767305 77.23796048 -56 76 C-55.28408691 75.45512939 -54.56817383 74.91025879 -53.83056641 74.34887695 C-52 73 -52 73 -50 73 C-49.72615479 72.44022461 -49.45230957 71.88044922 -49.17016602 71.30371094 C-47.93655741 68.8751003 -46.62118998 66.51000822 -45.27734375 64.140625 C-44.74270508 63.19670898 -44.20806641 62.25279297 -43.65722656 61.28027344 C-43.0897168 60.2802832 -42.52220703 59.28029297 -41.9375 58.25 C-40.76427664 56.17710953 -39.59109981 54.10419271 -38.41796875 52.03125 C-36.34008193 48.36296054 -34.25926057 44.69636516 -32.17578125 41.03125 C-31.36712973 39.6041994 -30.55853177 38.17711845 -29.75 36.75 C-29.3799585 36.10192383 -29.00991699 35.45384766 -28.62866211 34.78613281 C-25.62513182 29.52673714 -25.62513182 29.52673714 -25.3515625 23.59375 C-25.73212825 19.16178997 -25.92907553 15.10541811 -24 11 C-18.40976078 5.41872429 -8.16664551 -1.06395334 0 0 Z " fill="#8ED5F6" transform="translate(357,289)"/>
<path d="M0 0 C4.95 0 9.9 0 15 0 C15.99 1.98 16.98 3.96 18 6 C20.46642088 7.23321044 22.07963748 7.12470133 24.8384552 7.12457275 C26.37153069 7.12841728 26.37153069 7.12841728 27.93557739 7.13233948 C29.06132172 7.13023972 30.18706604 7.12813995 31.34692383 7.12597656 C32.52912003 7.1278447 33.71131622 7.12971283 34.92933655 7.13163757 C37.50373427 7.13564932 40.07813557 7.13771712 42.65253639 7.13809967 C46.7245094 7.13923915 50.79639157 7.15207138 54.86833191 7.16766357 C55.55535039 7.17023643 56.24236888 7.17280928 56.9502061 7.1754601 C58.35521769 7.1807268 59.7602292 7.18601228 61.16524065 7.19131613 C70.64638858 7.22643347 80.12742422 7.25297837 89.60864258 7.25048828 C96.00219036 7.24889937 102.39542899 7.26494304 108.78887767 7.30119491 C112.17226987 7.3196535 115.55514596 7.3289995 118.93857765 7.31671906 C122.71449957 7.30713199 126.48909094 7.32821738 130.26489258 7.35644531 C131.94440002 7.34115028 131.94440002 7.34115028 133.65783691 7.32554626 C135.20360161 7.34630974 135.20360161 7.34630974 136.78059387 7.36749268 C137.67305722 7.36895924 138.56552057 7.3704258 139.48502827 7.3719368 C142 8 142 8 147 13 C147 26.2 147 39.4 147 53 C-0.18 53 -147.36 53 -299 53 C-299 13 -299 13 -294 8 C-291.53053373 7.37719816 -291.53053373 7.37719816 -288.882514 7.38031673 C-287.36122935 7.36385897 -287.36122935 7.36385897 -285.80921167 7.34706873 C-284.7020203 7.36047046 -283.59482893 7.3738722 -282.4540863 7.38768005 C-281.27248981 7.38214664 -280.09089332 7.37661323 -278.87349087 7.37091213 C-275.59710989 7.36050726 -272.32168434 7.372463 -269.04538405 7.39376509 C-265.5109169 7.41125633 -261.97653171 7.39982965 -258.44204712 7.39175415 C-252.31860915 7.38154873 -246.19540214 7.38915329 -240.07198906 7.40841484 C-231.21422943 7.43590188 -222.35669347 7.43207387 -213.4989096 7.41982902 C-199.12205238 7.40043403 -184.74526884 7.40037851 -170.3684082 7.4152832 C-169.50799728 7.41616934 -168.64758636 7.41705547 -167.76110239 7.41796846 C-164.27463111 7.42160261 -160.78815993 7.42532001 -157.30168885 7.42913502 C-147.70153427 7.43960024 -138.10137876 7.44784372 -128.5012207 7.4543457 C-127.21172097 7.45522806 -127.21172097 7.45522806 -125.89617073 7.45612823 C-111.57193865 7.46540156 -97.24775064 7.45894428 -82.92352635 7.44203526 C-74.08570195 7.43243475 -65.24811384 7.4376316 -56.410316 7.46180297 C-50.35797142 7.47752942 -44.30572772 7.47939488 -38.25336986 7.47026973 C-34.759132 7.46553254 -31.26521886 7.46750918 -27.7710247 7.48690605 C-23.98672493 7.50464259 -20.20323146 7.49807882 -16.41893005 7.4853363 C-14.75479691 7.50209283 -14.75479691 7.50209283 -13.05704492 7.51918787 C-12.0454629 7.51082377 -11.03388088 7.50245968 -9.99164486 7.49384212 C-9.1179607 7.49503361 -8.24427654 7.49622509 -7.34411711 7.49745268 C-4.1935225 6.8288548 -3.00363318 5.46846638 -1 3 C-0.67 2.01 -0.34 1.02 0 0 Z " fill="#3A65C0" transform="translate(314,27)"/>
<path d="M0 0 C11.64394357 8.54311077 19.94677576 20.78722473 23 35 C23.24209555 38.22610661 23.23104427 41.45317828 23.25 44.6875 C23.270625 45.54794922 23.29125 46.40839844 23.3125 47.29492188 C23.34499292 52.68468574 22.63302959 56.99464939 20.62915039 62.00927734 C19.61880761 65.20614776 20.15695576 67.82237172 21 71 C21.66 71.66 22.32 72.32 23 73 C23 77.50187547 20.53513431 81.04164842 17.859375 84.48828125 C16 86 16 86 13.953125 86.04296875 C13.22609375 85.88441406 12.4990625 85.72585938 11.75 85.5625 C8.67788372 84.90711519 7.47184859 84.74834742 4.65625 86.25 C3.01100954 87.48927204 1.37731693 88.7439849 -0.24609375 90.01171875 C-13.25040543 99.40064733 -27.5197568 100.29978052 -43 99 C-47.71121583 98.1498313 -51.8121731 96.28849348 -56 94 C-57.44052734 93.23816406 -57.44052734 93.23816406 -58.91015625 92.4609375 C-72.5657396 84.53431278 -80.63925419 71.99388075 -84.9375 57 C-88.0948529 42.1407079 -85.34509728 28.67348582 -77.75 15.62890625 C-71.99517839 6.98382825 -65.17016809 0.83674194 -56 -4 C-54.57107422 -4.76183594 -54.57107422 -4.76183594 -53.11328125 -5.5390625 C-35.96315963 -13.40044988 -15.56517542 -9.65550017 0 0 Z " fill="#F3FAFE" transform="translate(426,338)"/>
<path d="M0 0 C0.98935547 -0.00773437 1.97871094 -0.01546875 2.99804688 -0.0234375 C20.65924192 0.02344026 37.04775659 7.65326912 49.625 19.875 C63.91821177 34.3056465 69.94997149 52.24116002 69.93554688 72.27514648 C69.71008058 80.70347267 68.02505807 88.59991138 64.4375 96.25 C60.70494552 98.73836965 58.85309065 98.79226552 54.4375 98.25 C51.9375 96.25 51.9375 96.25 50.4375 93.25 C50.56547578 89.21876292 51.01455845 86.33779285 52.46875 82.59765625 C56.59076446 68.35343693 53.0567874 53.63823128 46.1875 41 C39.0864032 29.45129481 28.32970475 21.51821719 15.4375 17.25 C1.87523724 14.75828958 -12.21548168 14.65936184 -24.5625 21.25 C-26.02429688 22.02923828 -26.02429688 22.02923828 -27.515625 22.82421875 C-40.43648764 30.39669153 -48.88206179 42.91862937 -52.76953125 57.32421875 C-56.31981514 73.02313033 -51.54405705 87.82428231 -43.5625 101.25 C-38.5251812 108.44921249 -32.2628209 113.13431124 -24.5625 117.25 C-23.63179688 117.75917969 -22.70109375 118.26835937 -21.7421875 118.79296875 C-14.59681258 122.1231239 -8.18550375 122.70359061 -0.375 122.75 C0.53934814 122.75636475 1.45369629 122.76272949 2.39575195 122.76928711 C10.96895598 122.60939403 18.63880268 120.61679634 26.125 116.375 C27.04152344 115.86066406 27.95804687 115.34632813 28.90234375 114.81640625 C31.14200383 113.4325793 33.13883878 111.95784536 35.1875 110.3125 C38.4375 108.25 38.4375 108.25 42.1875 108.25 C46.95206311 109.71601942 46.95206311 109.71601942 48.4375 112.25 C49.11221268 116.04525883 48.7050628 117.79415227 46.75 121.125 C37.52244114 130.97289895 21.40413265 137.51270984 8.04077148 138.41113281 C-13.56083626 138.77657754 -31.25090205 135.48337368 -47.5625 120.25 C-61.97494519 106.1942985 -69.25695123 88.59331885 -69.9375 68.5625 C-69.61778012 51.35404737 -62.9738876 35.11045269 -51.5625 22.25 C-51.06621094 21.66089844 -50.56992187 21.07179688 -50.05859375 20.46484375 C-37.13048175 6.24068042 -18.7618161 -0.14724774 0 0 Z " fill="#030304" transform="translate(394.5625,313.75)"/>
<path d="M0 0 C3.56212117 0.9329365 4.87182341 2.66955213 7.1328125 5.55859375 C8.61586738 9.05691984 9.62448083 12.64914284 10.6328125 16.30859375 C10.92978027 17.33484863 11.22674805 18.36110352 11.53271484 19.41845703 C12.13229778 21.49418533 12.72532055 23.57182064 13.31152344 25.65136719 C14.23047165 28.90429088 15.18576637 32.14519004 16.1496582 35.38500977 C16.75110405 37.41099616 17.34335294 39.43947403 17.93359375 41.46875 C18.78800203 44.39886362 19.6641218 47.32167413 20.55078125 50.2421875 C20.78394043 51.01643066 21.01709961 51.79067383 21.25732422 52.58837891 C21.70382223 54.06983965 22.15442935 55.5500705 22.60986328 57.02880859 C23.61997774 60.39830258 24.1328125 63.00146952 24.1328125 66.55859375 C24.7928125 66.55859375 25.4528125 66.55859375 26.1328125 66.55859375 C26.26816406 65.81480469 26.40351563 65.07101563 26.54296875 64.3046875 C28.25574128 55.61775135 30.64896436 47.26981684 33.29858398 38.82861328 C34.97352195 33.46514116 36.54598726 28.09654334 37.96875 22.66015625 C38.2687793 21.52682861 38.56880859 20.39350098 38.87792969 19.22583008 C39.45342928 17.03161811 40.01459048 14.83358248 40.55957031 12.6315918 C42.52265361 5.21370165 42.52265361 5.21370165 45.625 1.8828125 C49.06964156 0.06391298 51.29100216 0.0097637 55.1328125 0.55859375 C58.4947296 2.63348734 59.91282219 3.99258434 61.35546875 7.7043457 C61.63261719 8.95175537 61.90976562 10.19916504 62.1953125 11.484375 C62.35322266 12.17904373 62.51113281 12.87371246 62.67382812 13.58943176 C63.18851209 15.90746446 63.6660425 18.23045473 64.1328125 20.55859375 C64.2963623 21.37309998 64.45991211 22.1876062 64.62841797 23.02679443 C65.86080152 29.25499037 67.00205887 35.49879039 68.1328125 41.74609375 C68.63200472 44.47726994 69.13266366 47.20817327 69.63378906 49.93899536 C69.96553627 51.7506005 70.29562412 53.56251032 70.62402344 55.37472534 C71.46843308 60.01944866 72.3439362 64.65518849 73.2734375 69.28369141 C73.4590625 70.21877029 73.6446875 71.15384918 73.8359375 72.11726379 C74.18811028 73.88310958 74.54696592 75.6476424 74.9140625 77.41044617 C75.96282991 82.69858756 76.92199222 88.17206576 76.1328125 93.55859375 C73.71259353 96.3937074 72.20972899 97.3484637 68.5703125 98.05859375 C65.14433177 97.35582847 64.16096013 96.42597488 62.1328125 93.55859375 C61.38371202 90.56219183 60.73969343 87.58559442 60.1328125 84.55859375 C59.7457312 82.66741821 59.7457312 82.66741821 59.35083008 80.73803711 C58.59217011 77.02215982 57.84477565 73.3041024 57.10107422 69.58520508 C56.63588756 67.2614546 56.16762405 64.9383379 55.69921875 62.61523438 C54.16759186 54.98164264 52.70869937 47.36023431 51.54492188 39.65942383 C51.33974455 37.57960352 51.33974455 37.57960352 50.1328125 36.55859375 C49.92527344 37.44675781 49.71773438 38.33492187 49.50390625 39.25 C47.25073275 48.59265664 44.62828345 57.77743833 41.77563477 66.95483398 C40.36368999 71.49822063 38.98017483 76.03752018 37.74609375 80.6328125 C37.53460693 81.40633057 37.32312012 82.17984863 37.10522461 82.97680664 C36.72115929 84.3955097 36.34978269 85.81774191 35.99438477 87.24389648 C34.71920787 91.89269512 32.89991805 94.55959368 29.1328125 97.55859375 C26.10632915 98.46597516 24.3831318 98.02292508 21.1328125 97.55859375 C15.47740274 93.73737094 13.8803525 86.10574151 12.3203125 79.80859375 C10.79436467 73.82031241 9.02912588 67.93959563 7.1328125 62.05859375 C4.52442035 53.95409341 2.22968081 45.81038729 0.1328125 37.55859375 C-1.31311544 40.9190424 -2.25366876 44.02910827 -2.84106445 47.63671875 C-3.0049617 48.62124023 -3.16885895 49.60576172 -3.33772278 50.62011719 C-3.59400703 52.19841309 -3.59400703 52.19841309 -3.85546875 53.80859375 C-4.23546 56.04832454 -4.61634687 58.28790354 -4.99804688 60.52734375 C-5.59278605 64.04808164 -6.18145072 67.5694351 -6.75463867 71.09375 C-7.3118154 74.50202455 -7.89410284 77.90523648 -8.48046875 81.30859375 C-8.72764397 82.88688965 -8.72764397 82.88688965 -8.97981262 84.49707031 C-10.41391951 92.64174106 -10.41391951 92.64174106 -13.28979492 95.7578125 C-15.8671875 97.55859375 -15.8671875 97.55859375 -19.4921875 97.62109375 C-22.8671875 96.55859375 -22.8671875 96.55859375 -24.8046875 94.93359375 C-27.69300988 88.47734373 -25.09047786 80.46453932 -23.8203125 73.8359375 C-23.60783875 72.69943253 -23.39536499 71.56292755 -23.17645264 70.39198303 C-22.49593989 66.75888047 -21.80680986 63.12747703 -21.1171875 59.49609375 C-20.44620766 55.93054375 -19.77699482 52.36466554 -19.10803223 48.79873657 C-18.66714606 46.45346826 -18.22436408 44.10855552 -17.77966309 41.76400757 C-16.73232759 36.23297993 -15.70840494 30.70036002 -14.75195312 25.15283203 C-14.49076691 23.65388145 -14.49076691 23.65388145 -14.2243042 22.12464905 C-13.90418481 20.2758369 -13.59083773 18.42583254 -13.28594971 16.57444763 C-12.4037593 11.50469739 -11.25155765 7.14024472 -8.8671875 2.55859375 C-5.69899994 0.44646871 -3.73499498 0.22702911 0 0 Z " fill="#040404" transform="translate(358.8671875,144.44140625)"/>
<path d="M0 0 C0.68089691 -0.0038269 1.36179382 -0.00765381 2.06332397 -0.01159668 C3.50398232 -0.01431378 4.94469016 -0.00696641 6.38525391 0.00976562 C8.55878036 0.03098488 10.7289265 0.01006668 12.90234375 -0.015625 C24.13036094 -0.03924409 32.89786506 1.78285756 41.26953125 9.6640625 C47.60198957 16.65462849 48.38622996 23.7749571 48.30078125 32.91796875 C47.56140823 40.77911866 43.58114733 46.781988 37.85546875 52.05859375 C33.10713937 55.74956319 29.03179028 57.79383014 22.9609375 57.53125 C28.32329537 64.28836256 33.88838717 70.74660731 39.79785156 77.02612305 C48.52579405 86.32612715 48.52579405 86.32612715 48.3984375 90.65625 C47.9609375 94.53125 47.9609375 94.53125 46.9609375 96.53125 C43.69132373 98.16605689 40.47827523 98.23764392 36.9609375 97.53125 C34.35469502 95.81120369 32.50640939 93.61133251 30.5234375 91.21875 C29.96487061 90.58155029 29.40630371 89.94435059 28.83081055 89.2878418 C27.18011802 87.39031674 25.56502617 85.46824341 23.9609375 83.53125 C23.14109375 82.54382813 22.32125 81.55640625 21.4765625 80.5390625 C20.07803847 78.82810225 18.68776838 77.11033534 17.30883789 75.38354492 C14.85471137 72.40220353 12.29850332 69.54743462 9.69140625 66.69921875 C8.80219482 65.72621826 7.9129834 64.75321777 6.99682617 63.75073242 C6.32498291 63.01830322 5.65313965 62.28587402 4.9609375 61.53125 C4.9515918 62.44414795 4.94224609 63.3570459 4.93261719 64.29760742 C4.88848569 67.69941048 4.8268235 71.09997167 4.75341797 74.5012207 C4.72527139 75.9705045 4.70402541 77.43993795 4.68994141 78.90942383 C4.6684222 81.02763114 4.62173416 83.14405153 4.5703125 85.26171875 C4.54936523 86.53426514 4.52841797 87.80681152 4.50683594 89.11791992 C3.87718942 93.05490021 2.75690891 94.74083328 -0.0390625 97.53125 C-3.03193132 98.45610966 -4.82879651 97.98985943 -8.0390625 97.53125 C-10.86797162 95.06518233 -11.04585282 93.46411596 -11.42674255 89.69836426 C-11.44759184 88.12260569 -11.45185655 86.54657538 -11.44311523 84.97070312 C-11.44997849 84.10847641 -11.45684174 83.24624969 -11.46391296 82.3578949 C-11.4822068 79.5092622 -11.47834018 76.66117881 -11.47265625 73.8125 C-11.47721647 71.83239563 -11.48252156 69.85229285 -11.48854065 67.87219238 C-11.49747657 63.72283497 -11.49504272 59.57366997 -11.48510742 55.42431641 C-11.47361094 50.10429553 -11.49383729 44.78493772 -11.52302456 39.46500397 C-11.54136003 35.37636083 -11.5410995 31.28787741 -11.53538704 27.19920349 C-11.53523353 25.23757496 -11.54130203 23.2759358 -11.55367851 21.31434631 C-11.56853847 18.57307162 -11.55794893 15.8330326 -11.54077148 13.09179688 C-11.55043945 12.28024643 -11.56010742 11.46869598 -11.57006836 10.6325531 C-11.52318335 7.06365116 -11.34451331 4.94914064 -9.20976257 2.02856445 C-6.10343724 -0.11412945 -3.74923089 0.01346741 0 0 Z " fill="#020202" transform="translate(269.0390625,144.46875)"/>
<path d="M0 0 C107.58 0 215.16 0 326 0 C326 63.03 326 126.06 326 191 C324.35 190.34 322.7 189.68 321 189 C319.98842205 188.63221656 318.9768441 188.26443312 317.93461227 187.88550472 C314.34196964 186.26938419 311.81218563 184.77716422 309 182 C307.2181941 176.2163569 307.47894147 170.59206485 307.63769531 164.59008789 C307.64137363 162.77701088 307.63976545 160.96391669 307.63331223 159.15084743 C307.63060756 154.30369225 307.70003774 149.46010642 307.78463745 144.61379242 C307.85308881 140.06301394 307.85619975 135.51309414 307.86474609 130.96179199 C307.92766152 117.66155684 308.09519688 104.36198306 308.25 91.0625 C308.4975 61.341875 308.745 31.62125 309 1 C207.36 1 105.72 1 1 1 C1 105.28 1 209.56 1 317 C0.67 317 0.34 317 0 317 C0 212.39 0 107.78 0 0 Z " fill="#D4E3EB" transform="translate(136,95)"/>
<path d="M0 0 C0.76441406 -0.00773438 1.52882812 -0.01546875 2.31640625 -0.0234375 C10.04862271 0.0028179 16.49333232 1.64786589 23.4375 5.1875 C24.94763672 5.94353516 24.94763672 5.94353516 26.48828125 6.71484375 C28.82221914 8.07371425 30.4611006 9.1438682 32.125 11.25 C32.83041917 15.3061602 32.44620577 16.79252512 30.0625 20.1875 C27.125 22.25 27.125 22.25 23.8125 22.3125 C20.21527863 21.27601249 17.19521525 19.9681971 13.921875 18.1875 C7.82386532 15.00592973 -0.16803891 15.34750524 -6.875 16.25 C-17.52321673 19.74467906 -24.59720351 26.49609763 -29.875 36.25 C-32.24822069 44.55627241 -32.51072637 56.07531662 -28.6875 63.9375 C-27.79469958 65.4031807 -26.86082446 66.84520014 -25.875 68.25 C-25.153125 69.3225 -24.43125 70.395 -23.6875 71.5 C-15.91943054 79.09544569 -8.10834119 81.57330433 2.49902344 81.6394043 C10.52241072 81.49388041 16.21895451 79.22209198 21.875 73.4375 C24.125 71.25 24.125 71.25 27.125 70.625 C31.23789267 71.48185264 32.72186932 72.82735933 35.125 76.25 C35.57303786 79.57828121 35.60475246 80.39293949 34.125 83.25 C27.78206387 90.87724964 19.60606467 96.41534788 9.63476562 97.52783203 C-1.62667256 98.32735407 -11.95197589 98.18806364 -21.875 92.25 C-22.66648438 91.81558594 -23.45796875 91.38117188 -24.2734375 90.93359375 C-34.34829289 84.89899607 -40.85770636 76.15638755 -44.875 65.25 C-45.23851562 64.37085938 -45.60203125 63.49171875 -45.9765625 62.5859375 C-48.85273534 51.90658268 -48.5500847 37.72685051 -43.484375 27.8515625 C-42.95328125 26.99304688 -42.4221875 26.13453125 -41.875 25.25 C-41.28203125 24.28835937 -40.6890625 23.32671875 -40.078125 22.3359375 C-30.92302146 8.74976385 -16.53862896 -0.16566239 0 0 Z " fill="#040404" transform="translate(209.875,144.75)"/>
<path d="M0 0 C5.77482333 0.14020815 10.0379847 3.06935122 14.8125 6 C15.58787109 6.4640625 16.36324219 6.928125 17.16210938 7.40625 C22.79958791 10.79958791 22.79958791 10.79958791 24 12 C24.20451105 15.24945336 24.34577659 18.49154921 24.4296875 21.74609375 C24.84366397 31.04331532 29.66775274 38.21172699 34.1875 46.125 C34.76975342 47.14456787 35.35200684 48.16413574 35.9519043 49.21459961 C37.10831367 51.23322011 38.26717898 53.25043601 39.42871094 55.26611328 C40.74983818 57.56474331 42.05335867 59.87200203 43.3515625 62.18359375 C47.4079286 69.17314888 51.37465602 74.29964834 58.7668457 77.84814453 C61.98161776 79.63955421 63.69123198 80.91582098 64.72338867 84.54003906 C65.055498 87.68480487 65.12273116 90.7133383 65.0625 93.875 C65.05234863 94.96530518 65.04219727 96.05561035 65.03173828 97.17895508 C64.81919915 101.88022048 64.66631425 105.03556426 61.95703125 108.95703125 C59.36721413 110.69271806 56.86389979 111.78586783 54 113 C49.5052997 116.34612955 46.87812731 119.29715374 44.125 124.26171875 C43.79258301 124.85241653 43.46016602 125.44311432 43.11767578 126.05171204 C42.06697296 127.92417095 41.03306251 129.80526204 40 131.6875 C38.966482 133.5439058 37.92955579 135.39837771 36.89233398 137.25271606 C36.21782465 138.46040261 35.54543546 139.6692759 34.87524414 140.87936401 C32.41676185 145.30801354 29.82438872 149.63715684 27.12890625 153.92504883 C24.96444366 157.90337226 24.98092828 161.24486499 25.01611328 165.73681641 C24.94800783 174.77420383 24.94800783 174.77420383 22.3203125 178.171875 C19.95469623 179.73772776 17.5963558 180.85911957 15 182 C13.10279319 183.14355776 11.2069704 184.28941466 9.3125 185.4375 C5.07596577 187.94176246 2.78965084 188.18514054 -2 187 C-1.1646875 186.4121875 -1.1646875 186.4121875 -0.3125 185.8125 C2.89599544 183.2977333 6.15661057 180.68677886 8 177 C8.10038404 173.85091555 8.19976211 170.7073351 8.16601562 167.55664062 C8.38180859 160.68396175 11.56197782 155.80073275 15 150 C16.16380169 147.89276242 17.32120917 145.78198251 18.47265625 143.66796875 C19.66859437 141.50743791 20.86521418 139.34728428 22.0625 137.1875 C22.66126953 136.09501953 23.26003906 135.00253906 23.87695312 133.87695312 C31.61210261 119.95707294 31.61210261 119.95707294 39.1875 115.625 C40.47720703 114.87089844 40.47720703 114.87089844 41.79296875 114.1015625 C44 113 44 113 46 113 C48.85655907 106.85921905 48.40700862 100.71978373 48.4375 94.0625 C48.47037109 92.79986328 48.50324219 91.53722656 48.53710938 90.23632812 C48.7995307 82.80973467 48.7995307 82.80973467 45.78125 76.296875 C42.53921055 73.6194604 39.35374053 71.81981906 35.59765625 69.98046875 C28.11086942 64.27249744 23.88707071 53.76794193 19.3125 45.75 C17.99701117 43.45259842 16.68002756 41.15605638 15.36328125 38.859375 C14.78876221 37.85358398 14.21424316 36.84779297 13.62231445 35.81152344 C12.56372654 33.97695633 11.46258394 32.16611344 10.31518555 30.38574219 C8.98803278 27.9782915 8.62305889 26.6731611 8.59375 23.96875 C8.57183594 23.24042969 8.54992187 22.51210938 8.52734375 21.76171875 C8.5 19.5 8.5 19.5 8.47265625 17.23828125 C8.33596722 12.69538123 7.95710038 9.67768116 5 6 C3.2348064 4.60037519 3.2348064 4.60037519 1.3125 3.6875 C0.219375 3.130625 -0.87375 2.57375 -2 2 C-1.34 1.34 -0.68 0.68 0 0 Z " fill="#73CBF5" transform="translate(433,289)"/>
<path d="M0 0 C13.37226827 2.00709467 24.94650271 11.27949075 32.8125 21.8125 C39.29075903 31.59880619 42.18227501 41.13192298 42.25 52.6875 C42.270625 53.54794922 42.29125 54.40839844 42.3125 55.29492188 C42.34499292 60.68468574 41.63302959 64.99464939 39.62915039 70.00927734 C38.61880761 73.20614776 39.15695576 75.82237172 40 79 C40.99 79.99 40.99 79.99 42 81 C42 85.50187547 39.53513431 89.04164842 36.859375 92.48828125 C35 94 35 94 32.953125 94.04296875 C32.22609375 93.88441406 31.4990625 93.72585938 30.75 93.5625 C27.67788372 92.90711519 26.47184859 92.74834742 23.65625 94.25 C22.01164247 95.48879528 20.37792449 96.74214571 18.75390625 98.0078125 C12.83770768 102.28761572 5.48274959 106.56708453 -2 106 C-1.28457031 105.44054687 -0.56914062 104.88109375 0.16796875 104.3046875 C13.88273516 93.14370518 23.51893564 79.93602777 26 62 C27.6860924 45.24445678 24.55067285 28.73515132 13.859375 15.3125 C10.44637255 11.41192577 6.91405745 7.82453082 2.9375 4.5 C1.968125 3.675 0.99875 2.85 0 2 C0 1.34 0 0.68 0 0 Z " fill="#E1F2FB" transform="translate(407,330)"/>
<path d="M0 0 C4.7334375 -0.1546875 4.7334375 -0.1546875 9.5625 -0.3125 C11.0331189 -0.38078003 11.0331189 -0.38078003 12.53344727 -0.45043945 C19.02120538 -0.55239652 22.15575408 0.65227337 27 5 C29.98068744 9.47103116 29.7271008 13.76037668 29 19 C26.77771218 23.75932027 22.74232182 26.11286047 18 28 C14.85986004 28.3438831 11.77876626 28.2848172 8.625 28.1875 C4.355625 28.0946875 4.355625 28.0946875 0 28 C0 18.76 0 9.52 0 0 Z " fill="#F0F7FB" transform="translate(273,160)"/>
<path d="M0 0 C1.30166359 -0.01902626 1.30166359 -0.01902626 2.62962341 -0.03843689 C3.56403763 -0.03550125 4.49845184 -0.03256561 5.46118164 -0.02954102 C6.42407608 -0.03478287 7.38697052 -0.04002472 8.37904358 -0.04542542 C10.41577185 -0.05184977 12.4525372 -0.05050328 14.48925781 -0.04199219 C17.6062226 -0.0334885 20.72135142 -0.06222792 23.83813477 -0.09399414 C25.81664984 -0.09560638 27.79516816 -0.09502819 29.77368164 -0.09204102 C31.17226662 -0.10889198 31.17226662 -0.10889198 32.59910583 -0.12608337 C39.01852763 -0.05693841 39.01852763 -0.05693841 42.29931641 2.21630859 C43.68383789 4.40405273 43.68383789 4.40405273 43.74633789 7.90405273 C42.45009611 12.17402565 41.47350917 13.11199244 37.68383789 15.40405273 C34.65819836 15.97693929 31.69384122 15.96515161 28.62133789 15.93530273 C27.7524292 15.93912964 26.88352051 15.94295654 25.98828125 15.94689941 C24.15599403 15.94961452 22.3236678 15.94228141 20.49145508 15.92553711 C17.69272142 15.90412071 14.89655456 15.92535128 12.09790039 15.95092773 C10.31404058 15.94828439 8.53018236 15.94315926 6.74633789 15.93530273 C5.91287842 15.94339966 5.07941895 15.95149658 4.22070312 15.95983887 C0.18173599 15.89490837 -1.84617165 15.69976643 -5.34545898 13.49804688 C-7.31616211 11.40405273 -7.31616211 11.40405273 -7.90991211 9.36889648 C-7.65548619 3.86693605 -7.65548619 3.86693605 -6.05467224 1.68321228 C-3.8827843 0.08518237 -2.68053583 0.01898329 0 0 Z " fill="#050607" transform="translate(50.316162109375,310.595947265625)"/>
<path d="M0 0 C1.30166359 -0.01902626 1.30166359 -0.01902626 2.62962341 -0.03843689 C3.56403763 -0.03550125 4.49845184 -0.03256561 5.46118164 -0.02954102 C6.42407608 -0.03478287 7.38697052 -0.04002472 8.37904358 -0.04542542 C10.41577185 -0.05184977 12.4525372 -0.05050328 14.48925781 -0.04199219 C17.6062226 -0.0334885 20.72135142 -0.06222792 23.83813477 -0.09399414 C25.81664984 -0.09560638 27.79516816 -0.09502819 29.77368164 -0.09204102 C31.17226662 -0.10889198 31.17226662 -0.10889198 32.59910583 -0.12608337 C39.01852763 -0.05693841 39.01852763 -0.05693841 42.29931641 2.21630859 C43.68383789 4.40405273 43.68383789 4.40405273 43.74633789 7.90405273 C42.45009611 12.17402565 41.47350917 13.11199244 37.68383789 15.40405273 C34.65819836 15.97693929 31.69384122 15.96515161 28.62133789 15.93530273 C27.7524292 15.93912964 26.88352051 15.94295654 25.98828125 15.94689941 C24.15599403 15.94961452 22.3236678 15.94228141 20.49145508 15.92553711 C17.69272142 15.90412071 14.89655456 15.92535128 12.09790039 15.95092773 C10.31404058 15.94828439 8.53018236 15.94315926 6.74633789 15.93530273 C5.91287842 15.94339966 5.07941895 15.95149658 4.22070312 15.95983887 C0.18173599 15.89490837 -1.84617165 15.69976643 -5.34545898 13.49804688 C-7.31616211 11.40405273 -7.31616211 11.40405273 -7.90991211 9.36889648 C-7.65548619 3.86693605 -7.65548619 3.86693605 -6.05467224 1.68321228 C-3.8827843 0.08518237 -2.68053583 0.01898329 0 0 Z " fill="#060708" transform="translate(50.316162109375,264.595947265625)"/>
<path d="M0 0 C0.86653702 -0.00619858 1.73307404 -0.01239716 2.62586975 -0.01878357 C4.45393758 -0.02587018 6.2820701 -0.02272795 8.11010742 -0.01000977 C10.89818876 0.00384677 13.68290551 -0.03021756 16.47070312 -0.06835938 C18.2513029 -0.06931076 20.03190685 -0.06745071 21.8125 -0.0625 C22.64079819 -0.07575821 23.46909637 -0.08901642 24.32249451 -0.10267639 C28.4535139 -0.03665753 31.21110543 0.31567131 34.54125977 2.87915039 C36.97265625 5.56640625 36.97265625 5.56640625 37.03515625 9.19140625 C35.99919034 12.48212149 35.60321557 13.53936643 32.97265625 15.56640625 C30.96166992 15.94735718 30.96166992 15.94735718 28.640625 15.95458984 C27.76962158 15.96404633 26.89861816 15.97350281 26.0012207 15.98324585 C25.06366943 15.97717316 24.12611816 15.97110046 23.16015625 15.96484375 C21.71225708 15.96914902 21.71225708 15.96914902 20.23510742 15.97354126 C18.19416721 15.97558286 16.15320748 15.97004632 14.11230469 15.95751953 C10.98458185 15.94146745 7.85815129 15.9573652 4.73046875 15.9765625 C2.74869506 15.97458009 0.76692217 15.97073645 -1.21484375 15.96484375 C-2.15239502 15.97091644 -3.08994629 15.97698914 -4.0559082 15.98324585 C-4.92691162 15.97378937 -5.79791504 15.96433289 -6.6953125 15.95458984 C-7.46125732 15.95220306 -8.22720215 15.94981628 -9.01635742 15.94735718 C-11.60767551 15.45647118 -12.47922441 14.68112737 -14.02734375 12.56640625 C-14.73514352 6.99248308 -14.73514352 6.99248308 -14.02734375 4.56640625 C-9.6968537 -0.02506 -5.94245935 -0.03549684 0 0 Z " fill="#060708" transform="translate(57.02734375,217.43359375)"/>
<path d="M0 0 C0.86653702 -0.00619858 1.73307404 -0.01239716 2.62586975 -0.01878357 C4.45393758 -0.02587018 6.2820701 -0.02272795 8.11010742 -0.01000977 C10.89818876 0.00384677 13.68290551 -0.03021756 16.47070312 -0.06835938 C18.2513029 -0.06931076 20.03190685 -0.06745071 21.8125 -0.0625 C22.64079819 -0.07575821 23.46909637 -0.08901642 24.32249451 -0.10267639 C28.4535139 -0.03665753 31.21110543 0.31567131 34.54125977 2.87915039 C36.97265625 5.56640625 36.97265625 5.56640625 37.03515625 9.19140625 C35.99919034 12.48212149 35.60321557 13.53936643 32.97265625 15.56640625 C30.96166992 15.94735718 30.96166992 15.94735718 28.640625 15.95458984 C27.76962158 15.96404633 26.89861816 15.97350281 26.0012207 15.98324585 C25.06366943 15.97717316 24.12611816 15.97110046 23.16015625 15.96484375 C21.71225708 15.96914902 21.71225708 15.96914902 20.23510742 15.97354126 C18.19416721 15.97558286 16.15320748 15.97004632 14.11230469 15.95751953 C10.98458185 15.94146745 7.85815129 15.9573652 4.73046875 15.9765625 C2.74869506 15.97458009 0.76692217 15.97073645 -1.21484375 15.96484375 C-2.15239502 15.97091644 -3.08994629 15.97698914 -4.0559082 15.98324585 C-4.92691162 15.97378937 -5.79791504 15.96433289 -6.6953125 15.95458984 C-7.46125732 15.95220306 -8.22720215 15.94981628 -9.01635742 15.94735718 C-11.60767551 15.45647118 -12.47922441 14.68112737 -14.02734375 12.56640625 C-14.73514352 6.99248308 -14.73514352 6.99248308 -14.02734375 4.56640625 C-9.6968537 -0.02506 -5.94245935 -0.03549684 0 0 Z " fill="#050607" transform="translate(57.02734375,171.43359375)"/>
<path d="M0 0 C0.86653702 -0.00619858 1.73307404 -0.01239716 2.62586975 -0.01878357 C4.45393758 -0.02587018 6.2820701 -0.02272795 8.11010742 -0.01000977 C10.89818876 0.00384677 13.68290551 -0.03021756 16.47070312 -0.06835938 C18.2513029 -0.06931076 20.03190685 -0.06745071 21.8125 -0.0625 C22.64079819 -0.07575821 23.46909637 -0.08901642 24.32249451 -0.10267639 C28.4535139 -0.03665753 31.21110543 0.31567131 34.54125977 2.87915039 C36.97265625 5.56640625 36.97265625 5.56640625 37.03515625 9.19140625 C35.99919034 12.48212149 35.60321557 13.53936643 32.97265625 15.56640625 C30.96166992 15.94735718 30.96166992 15.94735718 28.640625 15.95458984 C27.76962158 15.96404633 26.89861816 15.97350281 26.0012207 15.98324585 C25.06366943 15.97717316 24.12611816 15.97110046 23.16015625 15.96484375 C21.71225708 15.96914902 21.71225708 15.96914902 20.23510742 15.97354126 C18.19416721 15.97558286 16.15320748 15.97004632 14.11230469 15.95751953 C10.98458185 15.94146745 7.85815129 15.9573652 4.73046875 15.9765625 C2.74869506 15.97458009 0.76692217 15.97073645 -1.21484375 15.96484375 C-2.15239502 15.97091644 -3.08994629 15.97698914 -4.0559082 15.98324585 C-4.92691162 15.97378937 -5.79791504 15.96433289 -6.6953125 15.95458984 C-7.46125732 15.95220306 -8.22720215 15.94981628 -9.01635742 15.94735718 C-11.60767551 15.45647118 -12.47922441 14.68112737 -14.02734375 12.56640625 C-14.73514352 6.99248308 -14.73514352 6.99248308 -14.02734375 4.56640625 C-9.6968537 -0.02506 -5.94245935 -0.03549684 0 0 Z " fill="#050607" transform="translate(57.02734375,125.43359375)"/>
<path d="M0 0 C2.06066104 -0.1357683 4.12392757 -0.23233903 6.1875 -0.3125 C7.33605469 -0.37050781 8.48460937 -0.42851563 9.66796875 -0.48828125 C14.12260888 0.16450892 15.28431205 1.43694433 18 5 C18.67164733 8.09228917 18.58407319 11.08630599 18.48828125 14.23828125 C18.48120651 15.11904831 18.47413177 15.99981537 18.46684265 16.90727234 C18.43893848 19.70989285 18.37620943 22.51048735 18.3125 25.3125 C18.2874119 27.21676794 18.26459962 29.12106732 18.24414062 31.02539062 C18.18912503 35.68436984 18.10288151 40.34184189 18 45 C12.72 45 7.44 45 2 45 C1.96241577 43.11510864 1.96241577 43.11510864 1.92407227 41.19213867 C1.82997705 36.53480643 1.72976141 31.87762259 1.62768555 27.22045898 C1.58434471 25.20389271 1.54266902 23.18728993 1.50268555 21.1706543 C1.44496253 18.27381383 1.38127378 15.37715694 1.31640625 12.48046875 C1.29969376 11.57725388 1.28298126 10.674039 1.26576233 9.74345398 C1.24581711 8.90280899 1.22587189 8.062164 1.20532227 7.19604492 C1.18977798 6.45658127 1.1742337 5.71711761 1.15821838 4.95524597 C1.06087775 2.7848329 1.06087775 2.7848329 0 0 Z " fill="#30579D" transform="translate(443,35)"/>
<path d="M0 0 C1.94712891 -0.04640625 1.94712891 -0.04640625 3.93359375 -0.09375 C8.39881459 0.63683511 9.86835468 1.9250764 12.5625 5.5 C12.62625941 9.19804582 12.57091096 11.44239826 9.9609375 14.1796875 C6.61753457 16.02019269 3.92327778 15.96988481 0.125 16 C-1.82212891 16.04640625 -1.82212891 16.04640625 -3.80859375 16.09375 C-8.27381459 15.36316489 -9.74335468 14.0749236 -12.4375 10.5 C-12.50125941 6.80195418 -12.44591096 4.55760174 -9.8359375 1.8203125 C-6.49253457 -0.02019269 -3.79827778 0.03011519 0 0 Z " fill="#010204" transform="translate(121.4375,49.5)"/>
<path d="M0 0 C1.29808594 -0.01933594 2.59617187 -0.03867187 3.93359375 -0.05859375 C8.05880114 0.50534741 9.70715198 1.45800641 12.5625 4.4375 C13.1875 7.375 13.1875 7.375 12.5625 10.4375 C9.82823825 13.952241 8.37520779 15.29665398 3.93359375 16.06640625 C2.63550781 16.04449219 1.33742188 16.02257812 0 16 C-1.30066406 16.00128906 -2.60132813 16.00257812 -3.94140625 16.00390625 C-7.4375 15.4375 -7.4375 15.4375 -9.87109375 13.65625 C-12.45461497 9.9967985 -11.99699559 7.84352779 -11.4375 3.4375 C-8.13200748 -0.18947434 -4.70832293 0.00466633 0 0 Z " fill="#010103" transform="translate(38.4375,49.5625)"/>
<path d="M0 0 C1.3096875 0.01289062 2.619375 0.02578125 3.96875 0.0390625 C7.12455357 0.33928275 8.92709002 0.59666516 11.5 2.375 C13.02491998 5.42483996 12.73562548 8.0173369 12.5 11.375 C10.95737187 13.47858381 9.81891683 14.21554159 7.5 15.375 C5.02239656 15.57808225 2.60564265 15.69831994 0.125 15.75 C-0.88433594 15.80607422 -0.88433594 15.80607422 -1.9140625 15.86328125 C-5.6815194 15.93002753 -7.17990589 15.68026547 -9.9453125 13.04296875 C-11.84086802 9.79004307 -12.13073056 8.08054207 -11.5 4.375 C-8.23269509 -0.14204903 -5.37556018 -0.11639993 0 0 Z " fill="#000102" transform="translate(79.5,49.625)"/>
</svg>
